<?xml version="1.0" encoding="UTF-8" standalone="no"?>
<!DOCTYPE svg PUBLIC "-//W3C//DTD SVG 1.1//EN"
 "http://www.w3.org/Graphics/SVG/1.1/DTD/svg11.dtd">
<!-- Generated by graphviz version 2.47.0 (20210316.0004)
 -->
<!-- Title: dependencies Pages: 1 -->
<svg width="504pt" height="284pt"
 viewBox="0.00 0.00 504.00 284.00" xmlns="http://www.w3.org/2000/svg" xmlns:xlink="http://www.w3.org/1999/xlink">
<g id="graph0" class="graph" transform="scale(1 1) rotate(0) translate(4 280)">
<title>dependencies</title>
<polygon fill="white" stroke="transparent" points="-4,4 -4,-280 500,-280 500,4 -4,4"/>
<text text-anchor="start" x="227.01" y="-42.4" font-family="Times-12" font-weight="bold" font-size="14.00">Legend</text>
<polygon fill="#ffffb3" stroke="transparent" points="14,-10 14,-30 34,-30 34,-10 14,-10"/>
<text text-anchor="start" x="37.63" y="-15.4" font-family="Times-12" font-size="14.00"> &#160;Declarations</text>
<polygon fill="#8dd3c7" stroke="transparent" points="127,-10 127,-30 147,-30 147,-10 127,-10"/>
<text text-anchor="start" x="150.73" y="-15.4" font-family="Times-12" font-size="14.00"> &#160;Module</text>
<polygon fill="#80b1d3" stroke="transparent" points="213,-10 213,-30 233,-30 233,-10 213,-10"/>
<text text-anchor="start" x="236.78" y="-15.4" font-family="Times-12" font-size="14.00"> &#160;Bootstrap</text>
<polygon fill="#fdb462" stroke="transparent" points="310,-10 310,-30 330,-30 330,-10 310,-10"/>
<text text-anchor="start" x="333.67" y="-15.4" font-family="Times-12" font-size="14.00"> &#160;Providers</text>
<polygon fill="#fb8072" stroke="transparent" points="406,-10 406,-30 426,-30 426,-10 406,-10"/>
<text text-anchor="start" x="429.73" y="-15.4" font-family="Times-12" font-size="14.00"> &#160;Exports</text>
<g id="clust1" class="cluster">
<title>cluster_MaterialModule</title>
<polygon fill="none" stroke="black" stroke-dasharray="1,5" points="144.5,-70 144.5,-268 351.5,-268 351.5,-70 144.5,-70"/>
</g>
<g id="clust3" class="cluster">
<title>cluster_MaterialModule_imports</title>
<polygon fill="none" stroke="black" points="155.5,-78 155.5,-130 339.5,-130 339.5,-78 155.5,-78"/>
</g>
<g id="clust4" class="cluster">
<title>cluster_MaterialModule_exports</title>
<polygon fill="none" stroke="black" points="152.5,-208 152.5,-260 343.5,-260 343.5,-208 152.5,-208"/>
</g>
<!-- MatOption -->
<g id="node1" class="node">
<title>MatOption</title>
<polygon fill="#8dd3c7" stroke="black" points="331.44,-122 328.44,-126 307.44,-126 304.44,-122 253.56,-122 253.56,-86 331.44,-86 331.44,-122"/>
<text text-anchor="middle" x="292.5" y="-99.8" font-family="Times,serif" font-size="14.00">MatOption</text>
</g>
<!-- MaterialModule -->
<g id="node3" class="node">
<title>MaterialModule</title>
<polygon fill="#8dd3c7" stroke="black" points="300.97,-187 297.97,-191 276.97,-191 273.97,-187 194.03,-187 194.03,-151 300.97,-151 300.97,-187"/>
<text text-anchor="middle" x="247.5" y="-164.8" font-family="Times,serif" font-size="14.00">MaterialModule</text>
</g>
<!-- MatOption&#45;&gt;MaterialModule -->
<g id="edge1" class="edge">
<title>MatOption&#45;&gt;MaterialModule</title>
<path fill="none" stroke="black" d="M277.38,-122.11C277.38,-122.11 277.38,-140.99 277.38,-140.99"/>
<polygon fill="black" stroke="black" points="273.88,-140.99 277.38,-150.99 280.88,-140.99 273.88,-140.99"/>
</g>
<!-- MatSelect -->
<g id="node2" class="node">
<title>MatSelect</title>
<polygon fill="#8dd3c7" stroke="black" points="235.76,-122 232.76,-126 211.76,-126 208.76,-122 163.24,-122 163.24,-86 235.76,-86 235.76,-122"/>
<text text-anchor="middle" x="199.5" y="-99.8" font-family="Times,serif" font-size="14.00">MatSelect</text>
</g>
<!-- MatSelect&#45;&gt;MaterialModule -->
<g id="edge2" class="edge">
<title>MatSelect&#45;&gt;MaterialModule</title>
<path fill="none" stroke="black" d="M214.95,-122.11C214.95,-122.11 214.95,-140.99 214.95,-140.99"/>
<polygon fill="black" stroke="black" points="211.45,-140.99 214.95,-150.99 218.45,-140.99 211.45,-140.99"/>
</g>
<!-- MatOption  -->
<g id="node4" class="node">
<title>MatOption </title>
<polygon fill="#fb8072" stroke="black" points="335.94,-252 255.06,-252 255.06,-216 335.94,-216 335.94,-252"/>
<text text-anchor="middle" x="295.5" y="-229.8" font-family="Times,serif" font-size="14.00">MatOption </text>
</g>
<!-- MaterialModule&#45;&gt;MatOption  -->
<g id="edge3" class="edge">
<title>MaterialModule&#45;&gt;MatOption </title>
<path fill="none" stroke="black" stroke-dasharray="5,2" d="M278.01,-187.11C278.01,-187.11 278.01,-205.99 278.01,-205.99"/>
<polygon fill="black" stroke="black" points="274.51,-205.99 278.01,-215.99 281.51,-205.99 274.51,-205.99"/>
</g>
<!-- MatSelect  -->
<g id="node5" class="node">
<title>MatSelect </title>
<polygon fill="#fb8072" stroke="black" points="236.76,-252 160.24,-252 160.24,-216 236.76,-216 236.76,-252"/>
<text text-anchor="middle" x="198.5" y="-229.8" font-family="Times,serif" font-size="14.00">MatSelect </text>
</g>
<!-- MaterialModule&#45;&gt;MatSelect  -->
<g id="edge4" class="edge">
<title>MaterialModule&#45;&gt;MatSelect </title>
<path fill="none" stroke="black" stroke-dasharray="5,2" d="M215.32,-187.11C215.32,-187.11 215.32,-205.99 215.32,-205.99"/>
<polygon fill="black" stroke="black" points="211.82,-205.99 215.32,-215.99 218.82,-205.99 211.82,-205.99"/>
</g>
</g>
</svg>
