<?xml version="1.0" encoding="UTF-8" standalone="no"?>
<!DOCTYPE svg PUBLIC "-//W3C//DTD SVG 1.1//EN"
 "http://www.w3.org/Graphics/SVG/1.1/DTD/svg11.dtd">
<!-- Generated by graphviz version 2.47.0 (20210316.0004)
 -->
<!-- Title: dependencies Pages: 1 -->
<svg width="504pt" height="211pt"
 viewBox="0.00 0.00 504.00 211.00" xmlns="http://www.w3.org/2000/svg" xmlns:xlink="http://www.w3.org/1999/xlink">
<g id="graph0" class="graph" transform="scale(1 1) rotate(0) translate(4 207)">
<title>dependencies</title>
<polygon fill="white" stroke="transparent" points="-4,4 -4,-207 500,-207 500,4 -4,4"/>
<text text-anchor="start" x="227.01" y="-42.4" font-family="Times-12" font-weight="bold" font-size="14.00">Legend</text>
<polygon fill="#ffffb3" stroke="transparent" points="14,-10 14,-30 34,-30 34,-10 14,-10"/>
<text text-anchor="start" x="37.63" y="-15.4" font-family="Times-12" font-size="14.00"> &#160;Declarations</text>
<polygon fill="#8dd3c7" stroke="transparent" points="127,-10 127,-30 147,-30 147,-10 127,-10"/>
<text text-anchor="start" x="150.73" y="-15.4" font-family="Times-12" font-size="14.00"> &#160;Module</text>
<polygon fill="#80b1d3" stroke="transparent" points="213,-10 213,-30 233,-30 233,-10 213,-10"/>
<text text-anchor="start" x="236.78" y="-15.4" font-family="Times-12" font-size="14.00"> &#160;Bootstrap</text>
<polygon fill="#fdb462" stroke="transparent" points="310,-10 310,-30 330,-30 330,-10 310,-10"/>
<text text-anchor="start" x="333.67" y="-15.4" font-family="Times-12" font-size="14.00"> &#160;Providers</text>
<polygon fill="#fb8072" stroke="transparent" points="406,-10 406,-30 426,-30 426,-10 406,-10"/>
<text text-anchor="start" x="429.73" y="-15.4" font-family="Times-12" font-size="14.00"> &#160;Exports</text>
<g id="clust1" class="cluster">
<title>cluster_DepositModule</title>
<polygon fill="none" stroke="black" stroke-dasharray="1,5" points="96.5,-70 96.5,-195 399.5,-195 399.5,-70 96.5,-70"/>
</g>
<g id="clust3" class="cluster">
<title>cluster_DepositModule_imports</title>
<polygon fill="none" stroke="black" points="104.5,-78 104.5,-130 391.5,-130 391.5,-78 104.5,-78"/>
</g>
<!-- AccountComponent -->
<g id="node1" class="node">
<title>AccountComponent</title>
<polygon fill="#8dd3c7" stroke="black" points="383.76,-122 380.76,-126 359.76,-126 356.76,-122 255.24,-122 255.24,-86 383.76,-86 383.76,-122"/>
<text text-anchor="middle" x="319.5" y="-99.8" font-family="Times,serif" font-size="14.00">AccountComponent</text>
</g>
<!-- DepositModule -->
<g id="node3" class="node">
<title>DepositModule</title>
<polygon fill="#8dd3c7" stroke="black" points="298.1,-187 295.1,-191 274.1,-191 271.1,-187 194.9,-187 194.9,-151 298.1,-151 298.1,-187"/>
<text text-anchor="middle" x="246.5" y="-164.8" font-family="Times,serif" font-size="14.00">DepositModule</text>
</g>
<!-- AccountComponent&#45;&gt;DepositModule -->
<g id="edge1" class="edge">
<title>AccountComponent&#45;&gt;DepositModule</title>
<path fill="none" stroke="black" d="M276.58,-122.11C276.58,-122.11 276.58,-140.99 276.58,-140.99"/>
<polygon fill="black" stroke="black" points="273.08,-140.99 276.58,-150.99 280.08,-140.99 273.08,-140.99"/>
</g>
<!-- DepositComponent -->
<g id="node2" class="node">
<title>DepositComponent</title>
<polygon fill="#8dd3c7" stroke="black" points="236.88,-122 233.88,-126 212.88,-126 209.88,-122 112.12,-122 112.12,-86 236.88,-86 236.88,-122"/>
<text text-anchor="middle" x="174.5" y="-99.8" font-family="Times,serif" font-size="14.00">DepositComponent</text>
</g>
<!-- DepositComponent&#45;&gt;DepositModule -->
<g id="edge2" class="edge">
<title>DepositComponent&#45;&gt;DepositModule</title>
<path fill="none" stroke="black" d="M215.95,-122.11C215.95,-122.11 215.95,-140.99 215.95,-140.99"/>
<polygon fill="black" stroke="black" points="212.45,-140.99 215.95,-150.99 219.45,-140.99 212.45,-140.99"/>
</g>
</g>
</svg>
