<?xml version="1.0" encoding="UTF-8" standalone="no"?>
<!DOCTYPE svg PUBLIC "-//W3C//DTD SVG 1.1//EN"
 "http://www.w3.org/Graphics/SVG/1.1/DTD/svg11.dtd">
<!-- Generated by graphviz version 2.47.0 (20210316.0004)
 -->
<!-- Title: dependencies Pages: 1 -->
<svg width="1514pt" height="211pt"
 viewBox="0.00 0.00 1514.00 211.00" xmlns="http://www.w3.org/2000/svg" xmlns:xlink="http://www.w3.org/1999/xlink">
<g id="graph0" class="graph" transform="scale(1 1) rotate(0) translate(4 207)">
<title>dependencies</title>
<polygon fill="white" stroke="transparent" points="-4,4 -4,-207 1510,-207 1510,4 -4,4"/>
<text text-anchor="start" x="732.01" y="-42.4" font-family="Times-12" font-weight="bold" font-size="14.00">Legend</text>
<polygon fill="#ffffb3" stroke="transparent" points="519,-10 519,-30 539,-30 539,-10 519,-10"/>
<text text-anchor="start" x="542.63" y="-15.4" font-family="Times-12" font-size="14.00"> &#160;Declarations</text>
<polygon fill="#8dd3c7" stroke="transparent" points="632,-10 632,-30 652,-30 652,-10 632,-10"/>
<text text-anchor="start" x="655.73" y="-15.4" font-family="Times-12" font-size="14.00"> &#160;Module</text>
<polygon fill="#80b1d3" stroke="transparent" points="718,-10 718,-30 738,-30 738,-10 718,-10"/>
<text text-anchor="start" x="741.78" y="-15.4" font-family="Times-12" font-size="14.00"> &#160;Bootstrap</text>
<polygon fill="#fdb462" stroke="transparent" points="815,-10 815,-30 835,-30 835,-10 815,-10"/>
<text text-anchor="start" x="838.67" y="-15.4" font-family="Times-12" font-size="14.00"> &#160;Providers</text>
<polygon fill="#fb8072" stroke="transparent" points="911,-10 911,-30 931,-30 931,-10 911,-10"/>
<text text-anchor="start" x="934.73" y="-15.4" font-family="Times-12" font-size="14.00"> &#160;Exports</text>
<g id="clust1" class="cluster">
<title>cluster_AppModule</title>
<polygon fill="none" stroke="black" stroke-dasharray="1,5" points="8,-70 8,-195 1498,-195 1498,-70 8,-70"/>
</g>
<g id="clust3" class="cluster">
<title>cluster_AppModule_imports</title>
<polygon fill="none" stroke="black" points="526,-78 526,-130 1490,-130 1490,-78 526,-78"/>
</g>
<g id="clust6" class="cluster">
<title>cluster_AppModule_providers</title>
<polygon fill="none" stroke="black" points="16,-78 16,-130 518,-130 518,-78 16,-78"/>
</g>
<!-- AccountComponent -->
<g id="node1" class="node">
<title>AccountComponent</title>
<polygon fill="#8dd3c7" stroke="black" points="1482.26,-122 1479.26,-126 1458.26,-126 1455.26,-122 1353.74,-122 1353.74,-86 1482.26,-86 1482.26,-122"/>
<text text-anchor="middle" x="1418" y="-99.8" font-family="Times,serif" font-size="14.00">AccountComponent</text>
</g>
<!-- AppModule -->
<g id="node8" class="node">
<title>AppModule</title>
<polygon fill="#8dd3c7" stroke="black" points="850.66,-187 847.66,-191 826.66,-191 823.66,-187 767.34,-187 767.34,-151 850.66,-151 850.66,-187"/>
<text text-anchor="middle" x="809" y="-164.8" font-family="Times,serif" font-size="14.00">AppModule</text>
</g>
<!-- AccountComponent&#45;&gt;AppModule -->
<g id="edge1" class="edge">
<title>AccountComponent&#45;&gt;AppModule</title>
<path fill="none" stroke="black" d="M1418,-122.01C1418,-144.49 1418,-180 1418,-180 1418,-180 860.86,-180 860.86,-180"/>
<polygon fill="black" stroke="black" points="860.86,-176.5 850.86,-180 860.86,-183.5 860.86,-176.5"/>
</g>
<!-- AccountModule -->
<g id="node2" class="node">
<title>AccountModule</title>
<polygon fill="#8dd3c7" stroke="black" points="1335.48,-122 1332.48,-126 1311.48,-126 1308.48,-122 1228.52,-122 1228.52,-86 1335.48,-86 1335.48,-122"/>
<text text-anchor="middle" x="1282" y="-99.8" font-family="Times,serif" font-size="14.00">AccountModule</text>
</g>
<!-- AccountModule&#45;&gt;AppModule -->
<g id="edge2" class="edge">
<title>AccountModule&#45;&gt;AppModule</title>
<path fill="none" stroke="black" d="M1282,-122.13C1282,-142.57 1282,-173 1282,-173 1282,-173 860.98,-173 860.98,-173"/>
<polygon fill="black" stroke="black" points="860.98,-169.5 850.98,-173 860.98,-176.5 860.98,-169.5"/>
</g>
<!-- AppComponent -->
<g id="node3" class="node">
<title>AppComponent</title>
<polygon fill="#8dd3c7" stroke="black" points="1210.94,-122 1207.94,-126 1186.94,-126 1183.94,-122 1105.06,-122 1105.06,-86 1210.94,-86 1210.94,-122"/>
<text text-anchor="middle" x="1158" y="-99.8" font-family="Times,serif" font-size="14.00">AppComponent</text>
</g>
<!-- AppComponent&#45;&gt;AppModule -->
<g id="edge3" class="edge">
<title>AppComponent&#45;&gt;AppModule</title>
<path fill="none" stroke="black" d="M1158,-122.27C1158,-140.56 1158,-166 1158,-166 1158,-166 860.75,-166 860.75,-166"/>
<polygon fill="black" stroke="black" points="860.75,-162.5 850.75,-166 860.75,-169.5 860.75,-162.5"/>
</g>
<!-- AppRoutingModule -->
<g id="node4" class="node">
<title>AppRoutingModule</title>
<polygon fill="#8dd3c7" stroke="black" points="1087.27,-122 1084.27,-126 1063.27,-126 1060.27,-122 958.73,-122 958.73,-86 1087.27,-86 1087.27,-122"/>
<text text-anchor="middle" x="1023" y="-99.8" font-family="Times,serif" font-size="14.00">AppRoutingModule</text>
</g>
<!-- AppRoutingModule&#45;&gt;AppModule -->
<g id="edge4" class="edge">
<title>AppRoutingModule&#45;&gt;AppModule</title>
<path fill="none" stroke="black" d="M1023,-122.01C1023,-138.05 1023,-159 1023,-159 1023,-159 860.77,-159 860.77,-159"/>
<polygon fill="black" stroke="black" points="860.77,-155.5 850.77,-159 860.77,-162.5 860.77,-155.5"/>
</g>
<!-- DepositComponent -->
<g id="node5" class="node">
<title>DepositComponent</title>
<polygon fill="#8dd3c7" stroke="black" points="940.38,-122 937.38,-126 916.38,-126 913.38,-122 815.62,-122 815.62,-86 940.38,-86 940.38,-122"/>
<text text-anchor="middle" x="878" y="-99.8" font-family="Times,serif" font-size="14.00">DepositComponent</text>
</g>
<!-- DepositComponent&#45;&gt;AppModule -->
<g id="edge5" class="edge">
<title>DepositComponent&#45;&gt;AppModule</title>
<path fill="none" stroke="black" d="M833.19,-122.11C833.19,-122.11 833.19,-140.99 833.19,-140.99"/>
<polygon fill="black" stroke="black" points="829.69,-140.99 833.19,-150.99 836.69,-140.99 829.69,-140.99"/>
</g>
<!-- LoginComponent -->
<g id="node6" class="node">
<title>LoginComponent</title>
<polygon fill="#8dd3c7" stroke="black" points="797.28,-122 794.28,-126 773.28,-126 770.28,-122 682.72,-122 682.72,-86 797.28,-86 797.28,-122"/>
<text text-anchor="middle" x="740" y="-99.8" font-family="Times,serif" font-size="14.00">LoginComponent</text>
</g>
<!-- LoginComponent&#45;&gt;AppModule -->
<g id="edge6" class="edge">
<title>LoginComponent&#45;&gt;AppModule</title>
<path fill="none" stroke="black" d="M782.28,-122.11C782.28,-122.11 782.28,-140.99 782.28,-140.99"/>
<polygon fill="black" stroke="black" points="778.78,-140.99 782.28,-150.99 785.78,-140.99 778.78,-140.99"/>
</g>
<!-- PaymentComponent -->
<g id="node7" class="node">
<title>PaymentComponent</title>
<polygon fill="#8dd3c7" stroke="black" points="664.33,-122 661.33,-126 640.33,-126 637.33,-122 533.67,-122 533.67,-86 664.33,-86 664.33,-122"/>
<text text-anchor="middle" x="599" y="-99.8" font-family="Times,serif" font-size="14.00">PaymentComponent</text>
</g>
<!-- PaymentComponent&#45;&gt;AppModule -->
<g id="edge7" class="edge">
<title>PaymentComponent&#45;&gt;AppModule</title>
<path fill="none" stroke="black" d="M599,-122.01C599,-138.05 599,-159 599,-159 599,-159 757.26,-159 757.26,-159"/>
<polygon fill="black" stroke="black" points="757.26,-162.5 767.26,-159 757.26,-155.5 757.26,-162.5"/>
</g>
<!-- AccountService -->
<g id="node9" class="node">
<title>AccountService</title>
<ellipse fill="#fdb462" stroke="black" cx="437" cy="-104" rx="72.91" ry="18"/>
<text text-anchor="middle" x="437" y="-99.8" font-family="Times,serif" font-size="14.00">AccountService</text>
</g>
<!-- AccountService&#45;&gt;AppModule -->
<g id="edge8" class="edge">
<title>AccountService&#45;&gt;AppModule</title>
<path fill="none" stroke="black" d="M437,-122.27C437,-140.56 437,-166 437,-166 437,-166 757.05,-166 757.05,-166"/>
<polygon fill="black" stroke="black" points="757.05,-169.5 767.05,-166 757.05,-162.5 757.05,-169.5"/>
</g>
<!-- SessionService -->
<g id="node10" class="node">
<title>SessionService</title>
<ellipse fill="#fdb462" stroke="black" cx="277" cy="-104" rx="69.5" ry="18"/>
<text text-anchor="middle" x="277" y="-99.8" font-family="Times,serif" font-size="14.00">SessionService</text>
</g>
<!-- SessionService&#45;&gt;AppModule -->
<g id="edge9" class="edge">
<title>SessionService&#45;&gt;AppModule</title>
<path fill="none" stroke="black" d="M277,-122.13C277,-142.57 277,-173 277,-173 277,-173 757.25,-173 757.25,-173"/>
<polygon fill="black" stroke="black" points="757.25,-176.5 767.25,-173 757.25,-169.5 757.25,-176.5"/>
</g>
<!-- WebsocketService -->
<g id="node11" class="node">
<title>WebsocketService</title>
<ellipse fill="#fdb462" stroke="black" cx="107" cy="-104" rx="82.78" ry="18"/>
<text text-anchor="middle" x="107" y="-99.8" font-family="Times,serif" font-size="14.00">WebsocketService</text>
</g>
<!-- WebsocketService&#45;&gt;AppModule -->
<g id="edge10" class="edge">
<title>WebsocketService&#45;&gt;AppModule</title>
<path fill="none" stroke="black" d="M107,-122.01C107,-144.49 107,-180 107,-180 107,-180 757.19,-180 757.19,-180"/>
<polygon fill="black" stroke="black" points="757.19,-183.5 767.19,-180 757.19,-176.5 757.19,-183.5"/>
</g>
</g>
</svg>
